# xmcd CD database file
#
# Track frame offsets:
#	150
#	17942
#	36505
#	55595
#	78167
#	95825
#	115005
#	133632
#	151585
#	170590
#	187975
#	209465
#
# Disc length: 3061 seconds
#
# Revision: 0
# Processed by: cddbd v1.4PL0 Copyright (c) Steve Scherf et al.
# Submitted via: CDex 1.40Beta9
#
DISCID=980bf30c
DTITLE=Jim Diamond - Jim Diamond
DYEAR=1993
DGENRE=Country
TTITLE0=Not Man Enough
TTITLE1=Hi Ho Silver (Theme from "Boon")
TTITLE2=Devil In My Eyes
TTITLE3=I Still Love You
TTITLE4=I Wont' Let You Down
TTITLE5=We Dance The Night Away
TTITLE6=I Should Have Known Better
TTITLE7=It's True What They Say
TTITLE8=If You're Gonna Break My Heart
TTITLE9=Our Love
TTITLE10=Child's Heart
TTITLE11=Goodnight Tonight
EXTD=YEAR: 1993 ID3G: 2
EXTT0=
EXTT1=
EXTT2=
EXTT3=
EXTT4=
EXTT5=
EXTT6=
EXTT7=
EXTT8=
EXTT9=
EXTT10=
EXTT11=
PLAYORDER=
